<svg id="visual" viewBox="0 0 900 600" width="900" height="600" xmlns="http://www.w3.org/2000/svg" xmlns:xlink="http://www.w3.org/1999/xlink" version="1.1"><rect x="0" y="0" width="900" height="600" fill="#050505"></rect><g fill="#0b0b0b"><circle r="14" cx="173" cy="273"></circle><circle r="11" cx="831" cy="563"></circle><circle r="11" cx="174" cy="140"></circle><circle r="10" cx="826" cy="340"></circle><circle r="10" cx="468" cy="234"></circle><circle r="10" cx="727" cy="28"></circle><circle r="12" cx="258" cy="509"></circle><circle r="12" cx="90" cy="583"></circle><circle r="12" cx="435" cy="87"></circle><circle r="10" cx="108" cy="92"></circle><circle r="12" cx="417" cy="64"></circle><circle r="10" cx="76" cy="211"></circle><circle r="12" cx="752" cy="382"></circle><circle r="11" cx="865" cy="422"></circle><circle r="12" cx="713" cy="123"></circle><circle r="10" cx="22" cy="48"></circle><circle r="11" cx="305" cy="265"></circle><circle r="11" cx="819" cy="212"></circle><circle r="11" cx="265" cy="421"></circle><circle r="10" cx="648" cy="464"></circle><circle r="12" cx="559" cy="35"></circle><circle r="12" cx="562" cy="452"></circle><circle r="12" cx="474" cy="468"></circle><circle r="11" cx="38" cy="512"></circle><circle r="11" cx="865" cy="77"></circle><circle r="11" cx="624" cy="346"></circle></g></svg>